<svg class="svg-icon" style="width: 1em; height: 1em;vertical-align: middle;fill: currentColor;overflow: hidden;" viewBox="0 0 1024 1024" version="1.1" xmlns="http://www.w3.org/2000/svg"><path d="M512 500.869565m-400.695652 0a400.695652 400.695652 0 1 0 801.391304 0 400.695652 400.695652 0 1 0-801.391304 0Z" fill="#0B77E3" fill-opacity=".2" /><path d="M166.956522 122.434783h690.086956a33.391304 33.391304 0 0 1 33.391305 33.391304v690.086956a33.391304 33.391304 0 0 1-33.391305 33.391305H166.956522a33.391304 33.391304 0 0 1-33.391305-33.391305V155.826087a33.391304 33.391304 0 0 1 33.391305-33.391304z m0 22.260869a11.130435 11.130435 0 0 0-11.130435 11.130435v690.086956a11.130435 11.130435 0 0 0 11.130435 11.130435h690.086956a11.130435 11.130435 0 0 0 11.130435-11.130435V155.826087a11.130435 11.130435 0 0 0-11.130435-11.130435H166.956522z" fill="#005CB9" /><path d="M166.956522 144.695652h690.086956a11.130435 11.130435 0 0 1 11.130435 11.130435v690.086956a11.130435 11.130435 0 0 1-11.130435 11.130435H166.956522a11.130435 11.130435 0 0 1-11.130435-11.130435V155.826087a11.130435 11.130435 0 0 1 11.130435-11.130435z" fill="#FFFFFF" /><path d="M289.391304 256c-18.44313 0-33.391304 14.614261-33.391304 32.645565v424.448C256 731.12487 270.948174 745.73913 289.391304 745.73913h445.217392c18.44313 0 33.391304-14.614261 33.391304-32.645565V288.645565C768 270.614261 753.051826 256 734.608696 256H289.391304z m-55.652174 367.304348V400.695652h-22.260869v-77.913043h22.260869v-34.526609C233.73913 258.148174 258.660174 233.73913 289.391304 233.73913h445.217392c30.73113 0 55.652174 24.409043 55.652174 54.51687v425.22713C790.26087 743.590957 765.339826 768 734.608696 768H289.391304c-30.73113 0-55.652174-24.409043-55.652174-54.51687V701.217391h-22.260869v-77.913043h22.260869z m0 233.73913h122.434783v33.391305a11.130435 11.130435 0 0 1-11.130435 11.130434h-100.173913a11.130435 11.130435 0 0 1-11.130435-11.130434v-33.391305z m434.086957 0h122.434783v33.391305a11.130435 11.130435 0 0 1-11.130435 11.130434h-100.173913a11.130435 11.130435 0 0 1-11.130435-11.130434v-33.391305z" fill="#005CB9" /><path d="M289.391304 256h445.217392c18.44313 0 33.391304 14.614261 33.391304 32.645565v424.448C768 731.12487 753.051826 745.73913 734.608696 745.73913H289.391304c-18.44313 0-33.391304-14.614261-33.391304-32.645565V288.645565C256 270.614261 270.948174 256 289.391304 256z" fill="#A6D2FF" /><path d="M333.913043 445.217391h22.26087v22.26087h-22.26087v-22.26087z m0 44.521739h22.26087v22.26087h-22.26087v-22.26087z m44.52174-44.521739h22.260869v22.26087h-22.260869v-22.26087z m0 44.521739h22.260869v22.26087h-22.260869v-22.26087z m44.521739-44.521739h22.260869v22.26087h-22.260869v-22.26087z m0 44.521739h22.260869v22.26087h-22.260869v-22.26087z m-89.043479 44.52174h22.26087v22.260869h-22.26087v-22.260869z m44.52174 0h22.260869v22.260869h-22.260869v-22.260869z m44.521739 0h22.260869v22.260869h-22.260869v-22.260869z" fill="#0B77E3" /><path d="M612.173913 500.869565m-100.173913 0a100.173913 100.173913 0 1 0 200.347826 0 100.173913 100.173913 0 1 0-200.347826 0Z" fill="#0B77E3" /><path d="M612.173913 500.869565m-66.782609 0a66.782609 66.782609 0 1 0 133.565218 0 66.782609 66.782609 0 1 0-133.565218 0Z" fill="#A6D2FF" /><path d="M650.74087 478.608696H723.478261a22.26087 22.26087 0 1 1 0 44.521739h-72.737391a44.521739 44.521739 0 1 1 0-44.521739z" fill="#005CB9" /></svg>