<svg class="svg-icon" style="width: 1em; height: 1em;vertical-align: middle;fill: currentColor;overflow: hidden;" viewBox="0 0 1024 1024" version="1.1" xmlns="http://www.w3.org/2000/svg"><path d="M651.636 325.818a139.636 139.636 0 1 0-279.272 0v93.091h279.272v-93.09z m69.819 93.091A93.09 93.09 0 0 1 814.545 512v279.273a93.09 93.09 0 0 1-93.09 93.09h-418.91a93.09 93.09 0 0 1-93.09-93.09V512a93.09 93.09 0 0 1 93.09-93.09h23.273v-93.092a186.182 186.182 0 1 1 372.364 0v93.091h23.273zM768 791.273V512a46.545 46.545 0 0 0-46.545-46.545h-418.91A46.545 46.545 0 0 0 256 512v279.273a46.545 46.545 0 0 0 46.545 46.545h418.91A46.545 46.545 0 0 0 768 791.273z" fill="#21A3DD" /><path d="M488.727 645.353v76.102a23.273 23.273 0 0 0 46.546 0v-76.102a46.545 46.545 0 1 0-46.546 0z" fill="#21A3DD" /></svg>