<svg class="svg-icon" style="width: 1em; height: 1em;vertical-align: middle;fill: currentColor;overflow: hidden;" viewBox="0 0 1024 1024" version="1.1" xmlns="http://www.w3.org/2000/svg"><path d="M512 912.695652c221.295304 0 400.695652-179.400348 400.695652-400.695652S733.295304 111.304348 512 111.304348 111.304348 290.704696 111.304348 512s179.400348 400.695652 400.695652 400.695652z" fill="#0B77E3" fill-opacity=".2" /><path d="M389.565217 400.695652m11.130435 0l523.130435 0q11.130435 0 11.130435 11.130435l0 322.782609q0 11.130435-11.130435 11.130434l-523.130435 0q-11.130435 0-11.130435-11.130434l0-322.782609q0-11.130435 11.130435-11.130435Z" fill="#A6D2FF" /><path d="M389.565217 456.347826h545.391305v44.521739H389.565217z" fill="#40A0FF" /><path d="M389.565217 411.781565v322.871652c0 6.210783 4.986435 11.085913 11.141566 11.085913h523.108174c6.088348 0 11.141565-4.964174 11.141565-11.085913V411.781565A11.063652 11.063652 0 0 0 923.814957 400.695652H400.706783c-6.088348 0-11.141565 4.964174-11.141566 11.085913z m-22.260869 0A33.413565 33.413565 0 0 1 400.706783 378.434783h523.108174A33.324522 33.324522 0 0 1 957.217391 411.781565v322.871652A33.413565 33.413565 0 0 1 923.814957 768H400.706783A33.324522 33.324522 0 0 1 367.304348 734.653217V411.781565zM946.086957 434.086957v89.043478H378.434783v-89.043478h567.652174z m-556.52174 22.260869v44.521739h545.391305v-44.521739H389.565217z" fill="#005CB9" /><path d="M89.043478 244.869565m11.130435 0l523.130435 0q11.130435 0 11.130435 11.130435l0 322.782609q0 11.130435-11.130435 11.130434l-523.130435 0q-11.130435 0-11.130435-11.130434l0-322.782609q0-11.130435 11.130435-11.130435Z" fill="#FFFFFF" /><path d="M133.565217 322.671304c0-6.077217 4.964174-11.01913 11.108174-11.01913h77.957566a11.130435 11.130435 0 0 1 11.108173 11.01913v44.744348c0 6.077217-4.964174 11.01913-11.108173 11.019131h-77.957566a11.119304 11.119304 0 0 1-11.108174-11.019131v-44.744348zM489.73913 300.521739h100.173913a11.130435 11.130435 0 0 1 11.130435 11.130435v66.782609a11.130435 11.130435 0 0 1-11.130435 11.130434h-100.173913a11.130435 11.130435 0 0 1-11.130434-11.130434v-66.782609a11.130435 11.130435 0 0 1 11.130434-11.130435z" fill="#A6D2FF" /><path d="M122.434783 456.336696c0-6.144 4.930783-11.119304 11.01913-11.119305h64.979478c6.088348 0 11.01913 4.930783 11.019131 11.119305v11.152695a11.063652 11.063652 0 0 1-11.019131 11.119305H133.453913a11.041391 11.041391 0 0 1-11.01913-11.119305v-11.152695z m0 68.496695a11.108174 11.108174 0 0 1 11.130434-11.130434h108.26574c6.15513 0 11.130435 4.941913 11.130434 11.130434v11.152696a11.108174 11.108174 0 0 1-11.130434 11.119304H133.565217c-6.144 0-11.130435-4.930783-11.130434-11.130434v-11.141566z m152.286608 0c0-6.144 5.042087-11.130435 11.230609-11.130434h166.077217c6.210783 0 11.241739 4.941913 11.24174 11.130434v11.152696c0 6.144-5.053217 11.119304-11.24174 11.119304H285.952a11.141565 11.141565 0 0 1-11.241739-11.130434v-11.141566z m-21.76-68.496695c0-6.144 4.930783-11.119304 11.019131-11.119305h64.979478c6.088348 0 11.01913 4.930783 11.01913 11.119305v11.152695a11.063652 11.063652 0 0 1-11.01913 11.119305h-64.979478a11.041391 11.041391 0 0 1-11.019131-11.119305v-11.152695z m130.537739 0c0-6.144 4.919652-11.119304 11.019131-11.119305h64.979478c6.077217 0 11.01913 4.930783 11.019131 11.119305v11.152695a11.063652 11.063652 0 0 1-11.019131 11.119305h-64.979478a11.041391 11.041391 0 0 1-11.019131-11.119305v-11.152695z m130.526609 0c0-6.144 4.930783-11.119304 11.019131-11.119305h64.979478c6.088348 0 11.01913 4.930783 11.01913 11.119305v11.152695a11.063652 11.063652 0 0 1-11.01913 11.119305h-64.979478a11.041391 11.041391 0 0 1-11.019131-11.119305v-11.152695z" fill="#40A0FF" /><path d="M66.782609 255.955478A33.413565 33.413565 0 0 1 100.185043 222.608696h523.108174A33.324522 33.324522 0 0 1 656.695652 255.955478v322.871652A33.413565 33.413565 0 0 1 623.293217 612.173913H100.185043A33.324522 33.324522 0 0 1 66.782609 578.82713V255.955478z m22.260869 0v322.871652c0 6.210783 4.986435 11.085913 11.141565 11.085913h523.108174c6.088348 0 11.141565-4.964174 11.141566-11.085913V255.955478A11.063652 11.063652 0 0 0 623.293217 244.869565H100.185043C94.096696 244.869565 89.043478 249.833739 89.043478 255.955478zM500.869565 367.304348h77.913044v-44.521739h-77.913044v44.521739z m-11.130435-66.782609h100.173913a11.130435 11.130435 0 0 1 11.130435 11.130435v66.782609a11.130435 11.130435 0 0 1-11.130435 11.130434h-100.173913a11.130435 11.130435 0 0 1-11.130434-11.130434v-66.782609a11.130435 11.130435 0 0 1 11.130434-11.130435z" fill="#005CB9" /></svg>