<svg class="svg-icon" style="width: 1em; height: 1em;vertical-align: middle;fill: currentColor;overflow: hidden;" viewBox="0 0 1024 1024" version="1.1" xmlns="http://www.w3.org/2000/svg"><path d="M512 912.695652c221.295304 0 400.695652-179.400348 400.695652-400.695652S733.295304 111.304348 512 111.304348 111.304348 290.704696 111.304348 512s179.400348 400.695652 400.695652 400.695652z" fill="#0B77E3" fill-opacity=".2" /><path d="M653.078261 258.259478l14.625391 32.623305-351.554782 62.419478-2.337392-4.08487 339.266783-90.957913z m0-58.178782l16.217043 35.227826-376.175304 99.995826-1.52487-3.005218 361.483131-132.229565z m154.37913 83.433739l62.508522 335.994435L177.942261 743.624348l-56.576-338.409739 686.08-121.711305z" fill="#40A0FF" /><path d="M653.078261 258.259478l14.625391 32.623305-351.554782 62.419478-2.337392-4.08487 339.266783-90.957913z m0-58.178782l16.217043 35.227826-376.175304 99.995826-1.52487-3.005218 361.483131-132.229565z" fill="#000000" opacity=".1" /><path d="M671.833043 251.113739l61.261914-20.301913s11.887304 57.744696 11.698086 57.043478c-66.226087 18.710261-76.310261-22.26087-77.801739-32.701217-60.271304 15.415652-72.737391-35.728696-72.737391-35.728696l57.889391-22.706087 19.70087 54.394435zM138.306783 475.881739l-13.846261-78.502956 77.801739-12.454957s1.769739 79.36-63.955478 90.957913zM508.994783 600.854261c-48.428522 8.537043-97.179826-24.242087-105.728-72.681739-8.537043-48.417391 24.932174-99.328 73.349565-107.853913 48.439652-8.548174 98.726957 25.377391 107.252869 73.817043 8.548174 48.428522-26.445913 98.170435-74.874434 106.718609z m-342.116174 62.21913c65.736348-11.575652 91.202783 63.599304 91.202782 63.599305l-77.356521 14.914782-13.846261-78.502956z m686.358261-122.768695l13.83513 78.502956-77.801739 12.443826s-1.769739-79.36 63.966609-90.946782z m-32.50087-180.646957c-65.725217 11.586783-91.202783-63.599304-91.202783-63.599304l77.356522-14.914783 13.846261 78.514087z" fill="#FFFFFF" /><path d="M213.047652 390.789565a89.410783 89.410783 0 0 1-72.870956 103.346087l27.046956 153.388522a89.410783 89.410783 0 0 1 103.813565 72.114087l503.373913-88.754087a89.410783 89.410783 0 0 1 72.414609-103.190261l-27.046956-153.388522a89.410783 89.410783 0 0 1-103.357218-72.269913l-503.373913 88.765218z m-21.926956 3.873392l-57.577739 10.150956a8.94887 8.94887 0 0 0-7.290435 10.351304l10.061913 57.054609c36.964174-6.622609 60.994783-41.093565 54.817391-77.556869z m57.989565 328.837565c-6.700522-36.329739-41.037913-60.471652-78.024348-54.049392l10.050783 56.965566a8.97113 8.97113 0 0 0 10.395826 7.234782l57.577739-10.150956z m547.216696-96.489739l57.121391-10.073044a8.94887 8.94887 0 0 0 7.290435-10.351304l-10.039653-56.965565a67.149913 67.149913 0 0 0-54.372173 77.389913z m-57.989566-328.837566a67.149913 67.149913 0 0 0 77.579131 54.205218l-10.061913-57.043478a8.97113 8.97113 0 0 0-10.384696-7.234783l-57.121391 10.073043z m1.391305-22.850782l-6.722783-25.088a11.197217 11.197217 0 0 0-13.645913-7.936l-48.595478 13.022608a60.416 60.416 0 0 0 16.105739 29.328696l52.858435-9.327304zM319.721739 349.384348l341.993739-60.304696a82.832696 82.832696 0 0 1-12.466087-27.993043L319.73287 349.384348zM105.728 402.977391a33.502609 33.502609 0 0 1 22.016-32.790261l505.822609-184.097391a33.424696 33.424696 0 0 1 42.863304 19.923478l8.214261 22.539131 28.961391-7.757913a33.458087 33.458087 0 0 1 40.904348 23.685565l7.223652 26.969043 29.862957-5.275826a31.232 31.232 0 0 1 36.173913 25.299479l54.895304 311.251478a31.209739 31.209739 0 0 1-25.35513 36.140522l-661.926957 116.713739a31.232 31.232 0 0 1-36.173913-25.288348l-54.873043-311.251478a31.020522 31.020522 0 0 1 1.391304-16.061218z m557.32313-168.626087l-7.535304-20.736a11.163826 11.163826 0 0 0-14.336-6.611478l-38.455652 13.990957a53.915826 53.915826 0 0 0 13.32313 25.933913l47.003826-12.577392z m-367.63826 98.504348l297.22713-79.649391a76.243478 76.243478 0 0 1-10.99687-24.531478l-286.21913 104.180869z m217.410782 287.632696c-60.538435 10.685217-118.26087-29.740522-128.934956-90.278957-10.685217-60.549565 29.740522-118.272 90.278956-128.946087 60.538435-10.674087 118.272 29.751652 128.946087 90.290087 10.674087 60.538435-29.751652 118.26087-90.290087 128.934957z m-3.862261-21.926957a89.043478 89.043478 0 1 0-30.931478-175.37113 89.043478 89.043478 0 0 0 30.931478 175.382261z" fill="#005CB9" /><path d="M542.608696 434.142609c20.992 13.401043 36.808348 34.726957 41.260521 59.993043 4.507826 25.522087-3.08313 51.422609-18.365217 71.457391A88.987826 88.987826 0 0 1 523.130435 489.73913c0-21.036522 7.290435-40.358957 19.478261-55.596521z" fill="#FFFFFF" /><path d="M553.104696 416.879304a111.014957 111.014957 0 0 1 50.009043 74.674087 111.070609 111.070609 0 0 1-24.531478 91.091479 111.938783 111.938783 0 0 1-17.530435-13.757218 88.865391 88.865391 0 0 0 20.134957-73.460869 88.82087 88.82087 0 0 0-40.670609-60.16c3.57287-6.533565 7.791304-12.688696 12.588522-18.387479z" fill="#005CB9" /><path d="M541.017043 742.678261l42.607305 42.607304L454.444522 914.476522l-42.629565-42.607305z" fill="#0B77E3" /><path d="M654.458435 761.677913a11.119304 11.119304 0 0 1 0 15.738435l-26.86887 26.88a11.130435 11.130435 0 0 1-15.738435 0L522.017391 714.451478a11.119304 11.119304 0 0 1 0-15.738435l26.86887-26.868869a11.119304 11.119304 0 0 1 15.738435 0l89.822608 89.822609z" fill="#40A0FF" /><path d="M840.091826 486.210783c56.509217 56.509217 56.509217 148.123826 0 204.633043-56.509217 56.509217-148.123826 56.509217-204.633043 0-56.509217-56.509217-56.509217-148.123826 0-204.633043 56.509217-56.509217 148.123826-56.509217 204.633043 0" fill="#FCFCFC" opacity=".7" /><path d="M595.767652 616.347826c-8.904348-45.657043 4.329739-94.775652 39.691131-130.137043 56.509217-56.509217 148.123826-56.509217 204.633043 0a144.517565 144.517565 0 0 1 39.691131 130.137043 144.005565 144.005565 0 0 0-39.691131-74.484869c-56.509217-56.509217-148.123826-56.509217-204.633043 0a144.005565 144.005565 0 0 0-39.691131 74.484869" fill="#000000" opacity=".1" /><path d="M632.119652 694.171826c59.213913 59.213913 154.523826 59.926261 212.880696 1.580522 58.345739-58.35687 57.633391-153.655652-1.580522-212.880696-59.213913-59.213913-154.523826-59.926261-212.880696-1.580522-58.345739 58.35687-57.633391 153.666783 1.580522 212.880696M605.94087 720.361739c-73.894957-73.894957-74.774261-192.812522-1.970087-265.627826 72.804174-72.793043 191.73287-71.92487 265.627826 1.970087 73.906087 73.906087 74.774261 192.823652 1.970087 265.627826-72.815304 72.804174-191.73287 71.92487-265.627826-1.970087" fill="#A6D2FF" /><path d="M648.281043 678.021565c50.16487 50.16487 130.893913 50.754783 180.313044 1.335652 49.441391-49.430261 48.840348-130.159304-1.335652-180.324174-50.153739-50.16487-130.893913-50.765913-180.313044-1.335652-49.430261 49.41913-48.829217 130.159304 1.335652 180.313044z m-16.64 16.840348c-59.291826-59.291826-60.104348-154.757565-1.613913-213.25913 58.490435-58.479304 153.956174-57.666783 213.248 1.625043 59.280696 59.280696 60.104348 154.757565 1.613913 213.248-58.490435 58.490435-153.967304 57.677913-213.25913-1.613913z m-25.711304 25.488696c73.906087 73.894957 192.834783 74.785391 265.638957 1.970087 72.815304-72.804174 71.92487-191.73287-1.958957-265.627826-73.906087-73.883826-192.823652-74.774261-265.627826-1.958957-72.815304 72.793043-71.92487 191.73287 1.958957 265.627826z m-64.912696 33.458087L422.956522 871.846957l31.488 31.488 118.049391-118.060522-31.47687-31.47687z m9.594435-72.236522a11.241739 11.241739 0 0 0-1.80313 1.469217l-15.593739 15.582609a11.152696 11.152696 0 0 0-0.055652 15.849739l78.669913 78.669913a11.264 11.264 0 0 0 15.838608-0.055652l15.582609-15.593739c0.556522-0.567652 1.057391-1.168696 1.469217-1.792a213.904696 213.904696 0 0 1-54.516869-39.602087 213.860174 213.860174 0 0 1-39.590957-54.51687z m-9.060174-20.435478c-28.527304-74.930087-13.089391-162.370783 46.681044-222.163479 81.563826-81.541565 214.572522-80.550957 297.115826 1.981218 82.532174 82.543304 83.522783 215.552 1.970087 297.115826-59.781565 59.770435-147.21113 75.208348-222.130087 46.681043a33.947826 33.947826 0 0 1-6.188522 8.481392l-15.593739 15.582608a33.502609 33.502609 0 0 1-47.315478 0.066783l-7.858087-7.858087-118.049391 118.060522a22.26087 22.26087 0 0 1-31.499131 0l-31.465739-31.47687a22.26087 22.26087 0 0 1 0-31.49913l118.060522-118.038261-7.858087-7.858087a33.391304 33.391304 0 0 1 0.055652-47.315478l15.582609-15.593739c2.56-2.56 5.442783-4.608 8.492521-6.166261z" fill="#005CB9" /></svg>