<svg class="svg-icon" style="width: 1em; height: 1em;vertical-align: middle;fill: currentColor;overflow: hidden;" viewBox="0 0 1024 1024" version="1.1" xmlns="http://www.w3.org/2000/svg"><path d="M512 912.695652c-221.295304 0-400.695652-179.400348-400.695652-400.695652s179.400348-400.695652 400.695652-400.695652 400.695652 179.400348 400.695652 400.695652-179.400348 400.695652-400.695652 400.695652z" fill="#0B77E3" fill-opacity=".2" /><path d="M801.391304 879.304348a11.130435 11.130435 0 0 1-11.041391 11.130435H233.650087A11.130435 11.130435 0 0 1 222.608696 879.304348V144.695652a11.130435 11.130435 0 0 1 11.041391-11.130435h556.699826A11.130435 11.130435 0 0 1 801.391304 144.695652v734.608696z" fill="#FFFFFF" /><path d="M361.427478 512l24.876522-24.876522a11.063652 11.063652 0 0 0 0.044522-15.649391l-0.779131-0.768a11.052522 11.052522 0 0 0-15.649391 0.044522L345.043478 495.616l-24.876521-24.865391a11.052522 11.052522 0 0 0-15.660522-0.044522l-0.768 0.77913a11.063652 11.063652 0 0 0 0.044522 15.638261L328.659478 512l-24.876521 24.876522a11.063652 11.063652 0 0 0-0.044522 15.649391l0.77913 0.768a11.052522 11.052522 0 0 0 15.649392-0.044522L345.043478 528.384l24.876522 24.865391a11.052522 11.052522 0 0 0 15.660522 0.044522l0.768-0.77913a11.063652 11.063652 0 0 0-0.044522-15.638261L361.427478 512z" fill="#005CB9" /><path d="M823.652174 879.304348V144.695652a33.391304 33.391304 0 0 0-33.302261-33.391304H233.650087A33.391304 33.391304 0 0 0 200.347826 144.695652v734.608696a33.391304 33.391304 0 0 0 33.302261 33.391304h556.699826A33.391304 33.391304 0 0 0 823.652174 879.304348z m-22.26087 0a11.130435 11.130435 0 0 1-11.041391 11.130435H233.650087A11.130435 11.130435 0 0 1 222.608696 879.304348V144.695652a11.130435 11.130435 0 0 1 11.041391-11.130435h556.699826A11.130435 11.130435 0 0 1 801.391304 144.695652v734.608696z" fill="#005CB9" /><path d="M656.695652 300.510609v11.152695a11.063652 11.063652 0 0 1-11.074782 11.119305h-189.328696a11.130435 11.130435 0 0 1-11.074783-11.119305v-11.152695c0-6.188522 4.953043-11.119304 11.074783-11.119305h189.328696a11.130435 11.130435 0 0 1 11.074782 11.119305z m55.652174 55.652174v11.152695A11.097043 11.097043 0 0 1 701.217391 378.434783H456.347826a11.130435 11.130435 0 0 1-11.130435-11.119305v-11.152695A11.097043 11.097043 0 0 1 456.347826 345.043478h244.869565a11.130435 11.130435 0 0 1 11.130435 11.119305z m-55.652174 300.521739v11.152695a11.063652 11.063652 0 0 1-11.074782 11.119305h-189.328696a11.130435 11.130435 0 0 1-11.074783-11.119305v-11.152695c0-6.188522 4.953043-11.119304 11.074783-11.119305h189.328696a11.130435 11.130435 0 0 1 11.074782 11.119305z m55.652174 55.652174v11.152695A11.097043 11.097043 0 0 1 701.217391 734.608696H456.347826a11.130435 11.130435 0 0 1-11.130435-11.119305v-11.152695A11.097043 11.097043 0 0 1 456.347826 701.217391h244.869565a11.130435 11.130435 0 0 1 11.130435 11.119305z" fill="#40A0FF" /><path d="M656.695652 478.597565v11.152696a11.063652 11.063652 0 0 1-11.074782 11.119304h-189.328696a11.130435 11.130435 0 0 1-11.074783-11.119304v-11.152696c0-6.188522 4.953043-11.119304 11.074783-11.119304h189.328696a11.130435 11.130435 0 0 1 11.074782 11.119304z m55.652174 55.652174v11.152696A11.097043 11.097043 0 0 1 701.217391 556.521739H456.347826a11.130435 11.130435 0 0 1-11.130435-11.119304v-11.152696A11.097043 11.097043 0 0 1 456.347826 523.130435h244.869565a11.130435 11.130435 0 0 1 11.130435 11.119304z" fill="#40A0FF" /><path d="M345.043478 756.869565a55.652174 55.652174 0 1 0 0-111.304348 55.652174 55.652174 0 0 0 0 111.304348z m0-22.260869a33.391304 33.391304 0 1 1 0-66.782609 33.391304 33.391304 0 0 1 0 66.782609z" fill="#005CB9" /><path d="MNaN NaNmNaN NaNaNaN NaN NaN 1 0 NaN NaN NaN NaN NaN 1 0 NaN NaNZ" fill="#A6D2FF" /><path d="M328.414609 373.23687a11.241739 11.241739 0 0 1-2.56-1.335653l-27.347479-19.144347a11.097043 11.097043 0 0 1-2.726956-15.504696 11.097043 11.097043 0 0 1 15.493565-2.738087l18.565565 13.000348 38.377739-54.806261a11.085913 11.085913 0 0 1 15.482435-2.715826c5.030957 3.528348 6.266435 10.462609 2.749218 15.471304l-44.722087 63.877565a11.085913 11.085913 0 0 1-13.312 3.895653z" fill="#005CB9" /><path d="M463.104 776.069565l42.607304 42.607305L376.531478 947.867826l-42.629565-42.607304z" fill="#0B77E3" /><path d="M576.545391 795.069217a11.119304 11.119304 0 0 1 0 15.738435l-26.868869 26.88a11.130435 11.130435 0 0 1-15.738435 0L444.104348 747.842783a11.119304 11.119304 0 0 1 0-15.738435l26.868869-26.86887a11.119304 11.119304 0 0 1 15.738435 0l89.822609 89.822609z" fill="#40A0FF" /><path d="M762.178783 519.602087c56.509217 56.509217 56.509217 148.123826 0 204.633043-56.509217 56.509217-148.123826 56.509217-204.633044 0-56.509217-56.509217-56.509217-148.123826 0-204.633043 56.509217-56.509217 148.123826-56.509217 204.633044 0" fill="#FCFCFC" opacity=".7" /><path d="M517.854609 649.73913c-8.904348-45.657043 4.329739-94.775652 39.69113-130.137043 56.509217-56.509217 148.123826-56.509217 204.633044 0a144.517565 144.517565 0 0 1 39.69113 130.137043 144.005565 144.005565 0 0 0-39.69113-74.484869c-56.509217-56.509217-148.123826-56.509217-204.633044 0a144.005565 144.005565 0 0 0-39.69113 74.484869" fill="#000000" opacity=".1" /><path d="M554.206609 727.56313c59.213913 59.213913 154.523826 59.926261 212.880695 1.580522 58.345739-58.35687 57.633391-153.655652-1.580521-212.880695-59.213913-59.213913-154.523826-59.926261-212.880696-1.580522-58.345739 58.35687-57.633391 153.666783 1.580522 212.880695M528.027826 753.753043c-73.894957-73.894957-74.774261-192.812522-1.970087-265.627826 72.804174-72.793043 191.73287-71.92487 265.627826 1.970087 73.906087 73.906087 74.774261 192.823652 1.970087 265.627826-72.815304 72.804174-191.73287 71.92487-265.627826-1.970087" fill="#A6D2FF" /><path d="M570.368 711.41287c50.16487 50.16487 130.893913 50.754783 180.313043 1.335652 49.441391-49.430261 48.840348-130.159304-1.335652-180.324174-50.153739-50.16487-130.893913-50.765913-180.313043-1.335652-49.430261 49.41913-48.829217 130.159304 1.335652 180.313043z m-16.64 16.840347c-59.291826-59.291826-60.104348-154.757565-1.613913-213.25913 58.490435-58.479304 153.956174-57.666783 213.248 1.625043 59.280696 59.280696 60.104348 154.757565 1.613913 213.248-58.490435 58.490435-153.967304 57.677913-213.25913-1.613913z m-25.711304 25.488696c73.906087 73.894957 192.834783 74.785391 265.638956 1.970087 72.815304-72.804174 71.92487-191.73287-1.958956-265.627826-73.906087-73.883826-192.823652-74.774261-265.627826-1.958957-72.815304 72.793043-71.92487 191.73287 1.958956 265.627826z m-64.912696 33.458087L345.043478 905.238261l31.488 31.488 118.049392-118.060522-31.47687-31.476869z m9.594435-72.236522a11.241739 11.241739 0 0 0-1.803131 1.469218l-15.593739 15.582608a11.152696 11.152696 0 0 0-0.055652 15.849739l78.669913 78.669914a11.264 11.264 0 0 0 15.838609-0.055653l15.582608-15.593739c0.556522-0.567652 1.057391-1.168696 1.469218-1.792a213.904696 213.904696 0 0 1-54.51687-39.602087 213.860174 213.860174 0 0 1-39.590956-54.516869z m-9.060174-20.435478c-28.527304-74.930087-13.089391-162.370783 46.681043-222.163478 81.563826-81.541565 214.572522-80.550957 297.115826 1.981217 82.532174 82.543304 83.522783 215.552 1.970087 297.115826-59.781565 59.770435-147.21113 75.208348-222.130087 46.681044a33.947826 33.947826 0 0 1-6.188521 8.481391l-15.593739 15.582609a33.502609 33.502609 0 0 1-47.315479 0.066782l-7.858087-7.858087-118.049391 118.060522a22.26087 22.26087 0 0 1-31.49913 0l-31.46574-31.476869a22.26087 22.26087 0 0 1 0-31.499131l118.060522-118.038261-7.858087-7.858087a33.391304 33.391304 0 0 1 0.055652-47.315478l15.582609-15.593739c2.56-2.56 5.442783-4.608 8.492522-6.166261z" fill="#005CB9" /></svg>