<svg class="svg-icon" style="width: 1em; height: 1em;vertical-align: middle;fill: currentColor;overflow: hidden;" viewBox="0 0 1024 1024" version="1.1" xmlns="http://www.w3.org/2000/svg"><path d="M512 912.695652c221.295304 0 400.695652-179.400348 400.695652-400.695652S733.295304 111.304348 512 111.304348 111.304348 290.704696 111.304348 512s179.400348 400.695652 400.695652 400.695652z" fill="#0B77E3" fill-opacity=".2" /><path d="M178.086957 166.956522a33.391304 33.391304 0 0 1 33.346782-33.391305h601.132522A33.346783 33.346783 0 0 1 845.913043 166.956522v723.478261a33.391304 33.391304 0 0 1-33.346782 33.391304H211.433739A33.346783 33.346783 0 0 1 178.086957 890.434783V166.956522z" fill="#005CB9" /><path d="M200.347826 166.956522a11.130435 11.130435 0 0 1 11.085913-11.130435h601.132522c6.121739 0 11.085913 4.964174 11.085913 11.130435v723.478261a11.130435 11.130435 0 0 1-11.085913 11.130434H211.433739A11.085913 11.085913 0 0 1 200.347826 890.434783V166.956522z m33.391304 55.652174v623.304347a22.26087 22.26087 0 0 0 22.26087 22.26087h500.825043A33.458087 33.458087 0 0 0 790.26087 834.771478V222.608696a33.380174 33.380174 0 0 0-33.435827-33.391305H267.174957A33.458087 33.458087 0 0 0 233.73913 222.619826z" fill="#40A0FF" /><path d="M256 222.619826c0-6.15513 5.064348-11.141565 11.174957-11.141565h489.650086A11.119304 11.119304 0 0 1 768 222.619826V834.782609c0 6.15513-5.064348 11.141565-11.174957 11.141565H256v-623.304348z" fill="#FFFFFF" /><path d="M445.217391 111.304348h-72.347826a61.206261 61.206261 0 0 0-61.217391 61.217391V211.478261a22.26087 22.26087 0 0 0 22.260869 22.260869h356.173914a22.26087 22.26087 0 0 0 22.260869-22.260869v-38.956522c0-33.78087-27.425391-61.217391-61.217391-61.217391H578.782609v-0.044522a66.782609 66.782609 0 0 0-133.565218 0V111.304348z" fill="#005CB9" /><path d="M467.478261 133.565217V111.259826a44.521739 44.521739 0 0 1 89.043478 0V133.565217h94.608696c21.51513 0 38.956522 17.474783 38.956522 38.956522V211.478261H333.913043v-38.956522c0-21.51513 17.41913-38.956522 38.956522-38.956522H467.478261z m44.521739 0a22.26087 22.26087 0 1 0 0-44.521739 22.26087 22.26087 0 0 0 0 44.521739z" fill="#A6D2FF" /><path d="M478.608696 734.608696h66.782608V400.695652h-66.782608z" fill="#40A0FF" /><path d="M512 133.565217a22.26087 22.26087 0 1 1 0-44.521739 22.26087 22.26087 0 0 1 0 44.521739zM356.173913 477.384348c0-5.476174 5.042087-9.906087 11.097044-9.906087h66.849391c6.121739 0 11.097043 4.374261 11.097043 9.906087v258.448695c0 5.476174-5.042087 9.906087-11.097043 9.906087h-66.849391c-6.121739 0-11.097043-4.374261-11.097044-9.906087V477.384348z m222.608696-143.504696c0-6.121739 5.042087-11.097043 11.097043-11.097043h66.849391c6.121739 0 11.097043 5.042087 11.097044 11.097043v400.762435c0 6.121739-5.042087 11.097043-11.097044 11.097043h-66.849391c-6.121739 0-11.097043-5.042087-11.097043-11.097043V333.879652z m-111.304348 65.958957c0-5.676522 5.042087-10.273391 11.097043-10.273392h66.849392c6.121739 0 11.097043 4.507826 11.097043 10.273392v335.62713c0 5.676522-5.042087 10.273391-11.097043 10.273391h-66.849392c-6.121739 0-11.097043-4.507826-11.097043-10.273391V399.838609zM378.434783 723.478261h44.521739V489.73913h-44.521739v233.739131z m222.608695 0h44.521739V345.043478h-44.521739v378.434783z m-111.304348 0h44.52174V411.826087h-44.52174v311.652174z" fill="#005CB9" /><path d="M845.913043 596.034783v277.147826A200.492522 200.492522 0 0 1 767.232 923.826087H635.202783C556.989217 896.545391 500.869565 822.127304 500.869565 734.608696c0-110.647652 89.700174-200.347826 200.347826-200.347826 56.876522 0 108.232348 23.707826 144.695652 61.773913z" fill="#000000" opacity=".1" /><path d="M723.478261 957.217391c-110.647652 0-200.347826-89.700174-200.347826-200.347826s89.700174-200.347826 200.347826-200.347826 200.347826 89.700174 200.347826 200.347826-89.700174 200.347826-200.347826 200.347826z m0-22.895304c98.003478 0 177.452522-79.449043 177.452522-177.452522S821.481739 579.417043 723.478261 579.417043 546.025739 658.866087 546.025739 756.869565 625.474783 934.322087 723.478261 934.322087z" fill="#005CB9" /><path d="M723.478261 934.956522c-98.359652 0-178.086957-79.727304-178.086957-178.086957s79.727304-178.086957 178.086957-178.086956 178.086957 79.727304 178.086956 178.086956-79.727304 178.086957-178.086956 178.086957z" fill="#FFFFFF" /><path d="M817.474783 661.982609l-60.994783 33.458087-60.994783 33.435826 55.095653 55.095652 33.446956-60.994783z" fill="#0B77E3" /><path d="M628.591304 850.866087l60.994783-33.446957 60.994783-33.446956-55.095653-55.095652-33.446956 60.994782z" fill="#A6D2FF" /><path d="M723.478261 756.869565m-22.26087 0a22.26087 22.26087 0 1 0 44.521739 0 22.26087 22.26087 0 1 0-44.521739 0Z" fill="#FFFFFF" /><path d="M712.347826 578.782609h22.26087v44.521739h-22.26087v-44.521739z m144.695652 189.217391v-22.26087h44.521739v22.26087h-44.521739z m-311.652174 0v-22.26087h44.521739v22.26087h-44.521739z m166.956522 122.434783h22.26087v44.521739h-22.26087v-44.521739z" fill="#0B77E3" /></svg>