<svg class="svg-icon" style="width: 1em; height: 1em;vertical-align: middle;fill: currentColor;overflow: hidden;" viewBox="0 0 1024 1024" version="1.1" xmlns="http://www.w3.org/2000/svg"><path d="M512 912.695652c221.295304 0 400.695652-179.400348 400.695652-400.695652S733.295304 111.304348 512 111.304348 111.304348 290.704696 111.304348 512s179.400348 400.695652 400.695652 400.695652z" fill="#0B77E3" fill-opacity=".2" /><path d="M178.086957 534.149565v236.343652a33.391304 33.391304 0 0 0 33.346782 33.28h601.132522A33.28 33.28 0 0 0 845.913043 770.493217V534.149565A33.391304 33.391304 0 0 0 812.566261 500.869565H211.433739A33.28 33.28 0 0 0 178.086957 534.149565z" fill="#40A0FF" /><path d="M812.566261 801.391304C831.031652 801.391304 845.913043 788.880696 845.913043 770.493217V534.149565A33.391304 33.391304 0 0 0 812.566261 500.869565H211.433739A33.28 33.28 0 0 0 178.086957 534.149565v236.343652C178.086957 788.74713 193.01287 801.391304 211.433739 801.391304H500.869565V556.521739h22.594783v244.869565h289.101913zM155.826087 534.149565A55.54087 55.54087 0 0 1 211.433739 478.608696h601.132522A55.652174 55.652174 0 0 1 868.173913 534.149565v236.343652C868.173913 801.190957 843.297391 823.652174 812.566261 823.652174H211.433739C180.758261 823.652174 155.826087 801.090783 155.826087 770.493217V534.149565z" fill="#005CB9" /><path d="M389.565217 578.348522V601.043478a33.391304 33.391304 0 0 1-33.391304 33.391305h-66.782609a33.391304 33.391304 0 0 1-33.391304-33.391305v-22.694956h-77.913043V489.73913h667.826086v88.609392h-77.913043V601.043478a33.391304 33.391304 0 0 1-33.391304 33.391305h-66.782609a33.391304 33.391304 0 0 1-33.391304-33.391305v-22.694956H389.565217z" fill="#000000" opacity=".1" /><path d="M155.826087 345.032348v168.837565c0 12.29913 9.984 22.249739 22.338783 22.249739h667.67026a22.305391 22.305391 0 0 0 22.338783-22.260869V345.043478a22.28313 22.28313 0 0 0-22.338783-22.260869H178.16487A22.305391 22.305391 0 0 0 155.826087 345.032348z" fill="#A6D2FF" /><path d="M389.565217 300.521739v-55.652174h-22.372174a11.074783 11.074783 0 0 1-11.01913-11.241739v-22.038261c0-6.210783 5.030957-11.241739 11.01913-11.241739h298.184348c6.088348 0 11.01913 4.930783 11.019131 11.241739v22.038261c0 6.210783-5.030957 11.241739-11.019131 11.241739h-26.657391v55.652174h207.126261A44.544 44.544 0 0 1 890.434783 345.032348v168.837565C890.434783 538.445913 870.522435 556.521739 845.913043 556.521739H178.086957c-24.631652 0-44.521739-18.042435-44.52174-42.651826V345.032348A44.566261 44.566261 0 0 1 178.16487 300.521739H389.565217z m37.676522 0H601.043478v-55.652174H427.230609v55.652174zM155.826087 345.032348v168.837565c0 12.29913 9.906087 20.390957 22.26087 20.390957h667.826086c12.332522 0 22.26087-8.125217 22.26087-20.390957V345.032348A22.28313 22.28313 0 0 0 845.83513 322.782609H178.16487A22.305391 22.305391 0 0 0 155.826087 345.032348z" fill="#005CB9" /><path d="M277.147826 512.356174c0-6.344348 6.41113-12.599652 12.911304-12.599652h65.313392c6.522435 0 12.933565 6.188522 12.933565 12.577391v77.222957c0 6.344348-6.422261 13.712696-12.933565 13.712695h-65.302261c-6.522435 0-12.922435-7.334957-12.922435-13.712695v-77.200696z m378.434783 0c0-6.344348 6.41113-12.599652 12.911304-12.599652h65.313391c6.522435 0 12.933565 6.188522 12.933566 12.577391v77.222957c0 6.344348-6.422261 13.712696-12.933566 13.712695h-65.302261c-6.522435 0-12.922435-7.334957-12.922434-13.712695v-77.200696z" fill="#FFFFFF" /><path d="M278.26087 511.944348V589.913043c0 6.15513 5.008696 11.130435 11.163826 11.130435H356.173913c6.15513 0 11.130435-5.008696 11.130435-11.130435v-77.968695A11.063652 11.063652 0 0 0 356.173913 500.869565h-66.749217a11.130435 11.130435 0 0 0-11.163826 11.074783z m-22.26087 0C256 489.99513 267.497739 478.608696 289.424696 478.608696H356.173913c22.060522 0 33.391304 11.709217 33.391304 33.335652v74.384695C389.565217 611.917913 378.37913 623.304348 356.173913 623.304348h-66.749217C267.25287 623.304348 256 611.750957 256 586.329043v-74.384695z m400.695652 0V589.913043c0 6.15513 5.008696 11.130435 11.163826 11.130435H734.608696c6.15513 0 11.130435-5.008696 11.130434-11.130435v-77.968695A11.063652 11.063652 0 0 0 734.608696 500.869565h-66.749218a11.130435 11.130435 0 0 0-11.163826 11.074783z m-22.260869 0C634.434783 489.99513 645.932522 478.608696 667.859478 478.608696H734.608696c22.060522 0 33.391304 11.709217 33.391304 33.335652v74.384695C768 611.917913 756.813913 623.304348 734.608696 623.304348h-66.749218C645.687652 623.304348 634.434783 611.750957 634.434783 586.329043v-74.384695z" fill="#005CB9" /><path d="M512 823.652174c-11.909565-27.269565-22.26087-57.388522-22.26087-89.043478 0-122.946783 110.792348-233.73913 233.739131-233.739131 40.548174 0 100.697043 17.307826 144.695652 55.652174v211.456C868.173913 801.346783 845.890783 823.652174 812.521739 823.652174H512z" fill="#000000" opacity=".1" /><path d="M723.478261 912.695652c-98.359652 0-178.086957-79.727304-178.086957-178.086956s79.727304-178.086957 178.086957-178.086957 178.086957 79.727304 178.086956 178.086957-79.727304 178.086957-178.086956 178.086956z" fill="#40A0FF" /><path d="M723.478261 857.043478c67.617391 0 122.434783-54.817391 122.434782-122.434782s-54.817391-122.434783-122.434782-122.434783-122.434783 54.817391-122.434783 122.434783 54.817391 122.434783 122.434783 122.434782z" fill="#FFFFFF" /><path d="M723.478261 912.061217c98.003478 0 177.452522-79.449043 177.452522-177.452521S821.481739 557.156174 723.478261 557.156174 546.025739 636.605217 546.025739 734.608696 625.474783 912.061217 723.478261 912.061217zM723.478261 934.956522c-110.647652 0-200.347826-89.700174-200.347826-200.347826s89.700174-200.347826 200.347826-200.347826 200.347826 89.700174 200.347826 200.347826-89.700174 200.347826-200.347826 200.347826z m0-78.803479c67.116522 0 121.544348-54.427826 121.544348-121.544347S790.594783 613.064348 723.478261 613.064348 601.933913 667.492174 601.933913 734.608696 656.361739 856.153043 723.478261 856.153043zM723.478261 879.304348c-79.916522 0-144.695652-64.77913-144.695652-144.695652s64.77913-144.695652 144.695652-144.695653 144.695652 64.77913 144.695652 144.695653-64.77913 144.695652-144.695652 144.695652z m-26.679652-164.774957a33.357913 33.357913 0 0 1 44.521739-8.158608l38.288695-45.690435a11.130435 11.130435 0 1 1 17.051827 14.291478l-41.394087 49.39687a33.391304 33.391304 0 1 1-64.946087 6.221913l-37.921392-21.960348a8.570435 8.570435 0 1 1 8.592696-14.825739l35.806609 20.724869zM723.233391 745.73913a11.130435 11.130435 0 1 0 0-22.260869 11.130435 11.130435 0 0 0 0 22.260869z" fill="#005CB9" /></svg>