<svg class="svg-icon" style="width: 1em; height: 1em;vertical-align: middle;fill: currentColor;overflow: hidden;" viewBox="0 0 1024 1024" version="1.1" xmlns="http://www.w3.org/2000/svg"><path d="M512 912.695652c221.295304 0 400.695652-179.400348 400.695652-400.695652S733.295304 111.304348 512 111.304348 111.304348 290.704696 111.304348 512s179.400348 400.695652 400.695652 400.695652z" fill="#0B77E3" fill-opacity=".2" /><path d="M826.034087 288.678957L139.942957 410.390261l56.58713 338.409739L888.542609 624.673391l-62.519652-335.994434z m-154.37913-83.43374L310.194087 337.474783l1.52487 2.994087 376.175304-99.995827-16.217044-35.227826z m0 58.178783l-339.255653 90.957913 2.326261 4.08487 351.565913-62.419479-14.625391-32.623304z" fill="#40A0FF" /><path d="M671.666087 205.245217L310.171826 337.474783l1.52487 2.994087 376.186434-99.995827-16.217043-35.227826z m0 58.178783l-339.266783 90.957913 2.326261 4.08487 351.554783-62.419479-14.614261-32.623304z" fill="#000000" opacity=".1" /><path d="M839.323826 364.822261l-13.846261-78.502957-77.356522 14.903653s25.466435 75.186087 91.202783 63.599304z m32.489739 180.646956c-65.725217 11.575652-63.955478 90.935652-63.955478 90.935653l77.801739-12.432696-13.846261-78.502957z m-686.34713 122.768696l13.83513 78.514087 77.356522-14.914783s-25.466435-75.174957-91.191652-63.588174z m342.105043-62.21913c48.439652-8.537043 83.422609-58.290087 74.885565-106.718609-8.537043-48.428522-58.824348-82.365217-107.252869-73.828174-48.428522 8.548174-81.886609 59.436522-73.349565 107.876174 8.537043 48.417391 57.288348 81.207652 105.716869 72.670609zM156.883478 481.046261c65.736348-11.586783 63.955478-90.957913 63.955479-90.957913l-77.80174 12.454956 13.846261 78.502957zM690.42087 256.289391l-19.70087-54.394434-57.878261 22.694956s12.466087 51.144348 72.737391 35.728696c1.480348 10.451478 11.575652 51.411478 77.80174 32.701217 0.189217 0.701217-11.698087-57.043478-11.698087-57.043478l-61.261913 20.313043z" fill="#FFFFFF" /><path d="M527.538087 603.737043a89.043478 89.043478 0 1 1-30.909217-175.415652 89.043478 89.043478 0 0 1 30.909217 175.415652z m3.862261 21.926957c60.549565-10.685217 100.964174-68.407652 90.290087-128.946087-10.674087-60.549565-68.407652-100.964174-128.946087-90.290087-60.538435 10.674087-100.953043 68.407652-90.267826 128.946087 10.662957 60.538435 68.385391 100.953043 128.923826 90.290087zM314.000696 338.020174l286.21913-104.18087c2.248348 8.993391 6.021565 17.252174 10.99687 24.542609l-297.216 79.638261z m367.638261-98.515478l-47.014957 12.599652a53.904696 53.904696 0 0 1-13.32313-25.933913l38.466782-14.002087a11.152696 11.152696 0 0 1 14.32487 6.622609l7.546435 20.702608z m-557.334261 168.626087a30.942609 30.942609 0 0 0-1.391305 16.072347l54.884174 311.251479a31.22087 31.22087 0 0 0 36.173913 25.288348l661.926957-116.71374a31.209739 31.209739 0 0 0 25.344-36.140521l-54.873044-311.251479a31.232 31.232 0 0 0-36.173913-25.288347l-29.885217 5.264695-7.223652-26.969043a33.458087 33.458087 0 0 0-40.904348-23.685565l-28.961391 7.769043-8.214261-22.550261a33.402435 33.402435 0 0 0-42.852174-19.923478l-505.833739 184.097391a33.480348 33.480348 0 0 0-22.016 32.790261z m213.993739-53.581913l329.538782-88.29774a82.365217 82.365217 0 0 0 12.466087 27.993044l-342.004869 60.304696zM758.316522 280.486957l-52.847305 9.316173a60.349217 60.349217 0 0 1-16.105739-29.328695l48.595479-13.022609a11.197217 11.197217 0 0 1 13.634782 7.936l6.722783 25.099131z m-1.380174 22.839652l57.121391-10.073044a8.97113 8.97113 0 0 1 10.384696 7.234783l10.061913 57.054609a67.149913 67.149913 0 0 1-77.568-54.216348z m57.989565 328.837565c-6.110609-36.285217 17.67513-70.566957 54.361044-77.389913l10.039652 56.965565a8.94887 8.94887 0 0 1-7.290435 10.351304l-57.121391 10.073044z m-547.238956 96.500869l-57.57774 10.162087a8.982261 8.982261 0 0 1-10.395826-7.234782l-10.039652-56.987826c36.975304-6.4 71.312696 17.730783 78.024348 54.060521z m-57.978435-328.837565c6.166261 36.463304-17.853217 70.934261-54.817392 77.55687l-10.061913-57.043478a8.96 8.96 0 0 1 7.290435-10.362435l57.58887-10.150957z m21.926956-3.862261L734.998261 307.2a89.410783 89.410783 0 0 0 103.357217 72.258783l27.046957 153.377391a89.421913 89.421913 0 0 0-72.414609 103.201391L289.613913 724.802783a89.421913 89.421913 0 0 0-103.813565-72.125218l-27.046957-153.377391a89.433043 89.433043 0 0 0 72.882087-103.334957z" fill="#005CB9" /><path d="M429.32313 859.681391C406.349913 872.147478 375.696696 879.304348 345.043478 879.304348c-61.217391 0-122.434783-28.571826-122.434782-70.834087v-28.326957l122.434782 52.736 122.434783-52.736v28.326957c0 21.103304-15.259826 38.789565-38.155131 51.21113" fill="#40A0FF" /><path d="M345.043478 834.782609c-67.617391 0-122.434783-37.376-122.434782-83.478261 0-46.102261 54.817391-83.478261 122.434782-83.478261s122.434783 37.376 122.434783 83.478261c0 46.102261-54.817391 83.478261-122.434783 83.478261" fill="#A6D2FF" /><path d="M345.043478 794.902261c-43.030261 0-77.913043-20.346435-77.913043-45.445565 0-25.110261 34.882783-45.456696 77.913043-45.456696s77.913043 20.346435 77.913044 45.456696c0 25.09913-34.882783 45.445565-77.913044 45.445565" fill="#FFFFFF" /><path d="M345.043478 834.782609c-67.617391 0-122.434783-37.376-122.434782-83.478261 0-46.102261 54.817391-83.478261 122.434782-83.478261s122.434783 37.376 122.434783 83.478261c0 46.102261-54.817391 83.478261-122.434783 83.478261" fill="#000000" opacity=".1" /><path d="M345.043478 794.902261c-43.030261 0-77.913043-20.346435-77.913043-45.445565 0-25.110261 34.882783-45.456696 77.913043-45.456696s77.913043 20.346435 77.913044 45.456696c0 25.09913-34.882783 45.445565-77.913044 45.445565z m0 22.260869c53.704348 0 100.173913-27.102609 100.173913-67.706434s-46.469565-67.717565-100.173913-67.717566-100.173913 27.113739-100.173913 67.717566c0 40.603826 46.469565 67.706435 100.173913 67.706434zM345.043478 834.782609c-67.617391 0-122.434783-37.376-122.434782-83.478261 0-46.102261 54.817391-83.478261 122.434782-83.478261s122.434783 37.376 122.434783 83.478261c0 46.102261-54.817391 83.478261-122.434783 83.478261z m144.662261-81.263305a73.126957 73.126957 0 0 0 0.033391-2.226087c0-60.594087-66.192696-105.73913-144.695652-105.73913s-144.695652 45.145043-144.695652 105.73913c0 0.75687 0.01113 1.491478 0.033391 2.226087H200.347826v54.962087C200.347826 864.445217 268.944696 901.565217 345.043478 901.565217c34.181565 0 68.496696-7.991652 94.886957-22.305391C470.661565 862.586435 489.73913 837.988174 489.73913 808.470261V753.530435l-0.033391-0.011131zM244.869565 849.196522c-13.790609-11.174957-22.26087-24.998957-22.260869-40.715131v-0.222608c6.310957 7.290435 13.801739 13.913043 22.260869 19.778782v21.147826z m200.347826 0v-21.158957a119.006609 119.006609 0 0 0 22.26087-19.767652v0.211478c0 15.716174-8.470261 29.540174-22.26087 40.715131z m-22.260869 13.712695c-6.912 3.272348-14.391652 6.099478-22.26087 8.448v-22.28313a171.853913 171.853913 0 0 0 22.26087-8.381217v22.216347z m-66.782609 16.083479v-22.26087a198.166261 198.166261 0 0 0 22.26087-2.470956v22.238608a201.126957 201.126957 0 0 1-22.26087 2.493218z m-66.782609-7.635479a157.217391 157.217391 0 0 1-22.260869-8.45913v-22.205217a171.853913 171.853913 0 0 0 22.260869 8.381217v22.28313z m22.26087 5.142261V854.26087c7.245913 1.224348 14.681043 2.070261 22.260869 2.482087v22.249739a198.489043 198.489043 0 0 1-22.260869-2.493218z" fill="#005CB9" /><path d="M462.714435 770.637913C439.741217 783.104 409.088 790.26087 378.434783 790.26087c-61.217391 0-122.434783-28.571826-122.434783-70.834087v-28.326957l122.434783 52.736 122.434782-52.736v28.326957c0 21.103304-15.259826 38.789565-38.15513 51.21113" fill="#40A0FF" /><path d="M378.434783 745.73913c-67.617391 0-122.434783-37.376-122.434783-83.47826 0-46.102261 54.817391-83.478261 122.434783-83.478261s122.434783 37.376 122.434782 83.478261c0 46.102261-54.817391 83.478261-122.434782 83.47826" fill="#A6D2FF" /><path d="M378.434783 705.858783c-43.030261 0-77.913043-20.346435-77.913044-45.445566 0-25.110261 34.882783-45.456696 77.913044-45.456695s77.913043 20.346435 77.913043 45.456695c0 25.09913-34.882783 45.445565-77.913043 45.445566" fill="#FFFFFF" /><path d="M378.434783 705.858783c-43.030261 0-77.913043-20.346435-77.913044-45.445566 0-25.110261 34.882783-45.456696 77.913044-45.456695s77.913043 20.346435 77.913043 45.456695c0 25.09913-34.882783 45.445565-77.913043 45.445566z m0 22.260869c53.704348 0 100.173913-27.102609 100.173913-67.706435s-46.469565-67.717565-100.173913-67.717565-100.173913 27.113739-100.173913 67.717565c0 40.603826 46.469565 67.706435 100.173913 67.706435zM378.434783 745.73913c-67.617391 0-122.434783-37.376-122.434783-83.47826 0-46.102261 54.817391-83.478261 122.434783-83.478261s122.434783 37.376 122.434782 83.478261c0 46.102261-54.817391 83.478261-122.434782 83.47826z m144.66226-81.263304a73.126957 73.126957 0 0 0 0.033392-2.226087c0-60.594087-66.192696-105.73913-144.695652-105.73913s-144.695652 45.145043-144.695653 105.73913c0 0.75687 0.01113 1.491478 0.033392 2.226087H233.73913v54.962087C233.73913 775.401739 302.336 812.521739 378.434783 812.521739c34.181565 0 68.496696-7.991652 94.886956-22.305391C504.05287 773.542957 523.130435 748.944696 523.130435 719.426783V664.486957l-0.033392-0.011131zM278.26087 760.153043c-13.790609-11.174957-22.26087-24.998957-22.26087-40.71513v-0.222609c6.310957 7.290435 13.801739 13.913043 22.26087 19.778783v21.147826z m200.347826 0v-21.158956a119.006609 119.006609 0 0 0 22.260869-19.767652v0.211478c0 15.716174-8.470261 29.540174-22.260869 40.71513z m-22.26087 13.712696c-6.912 3.272348-14.391652 6.099478-22.260869 8.448v-22.28313a171.853913 171.853913 0 0 0 22.260869-8.381218v22.216348z m-66.782609 16.083478v-22.260869a198.166261 198.166261 0 0 0 22.26087-2.470957v22.238609a201.126957 201.126957 0 0 1-22.26087 2.493217z m-66.782608-7.635478a157.217391 157.217391 0 0 1-22.26087-8.45913v-22.205218a171.853913 171.853913 0 0 0 22.26087 8.381218v22.28313z m22.260869 5.142261V765.217391c7.245913 1.224348 14.681043 2.070261 22.26087 2.482087v22.249739a198.489043 198.489043 0 0 1-22.26087-2.493217z" fill="#005CB9" /><path d="M913.964522 622.169043L777.761391 500.925217c-7.624348-6.789565-13.801739-3.962435-13.801739 6.310957v72.681739c-98.092522 0.812522-175.60487 81.196522-175.604869 180.290783 0 3.706435 0.26713 7.379478 0.500869 11.052521-0.022261 0.256-0.01113 0.50087-0.01113 0.74574 0 1.179826 0.222609 2.29287 0.489739 3.383652 1.491478 5.954783 6.789565 10.373565 13.156174 10.373565 4.908522 0 9.193739-2.671304 11.575652-6.622609 0.489739-1.302261 0.77913-2.57113 1.313391-3.84 19.456-46.258087 68.87513-79.315478 148.569044-79.727304v66.092522c0 10.273391 6.188522 13.100522 13.801739 6.310956l136.214261-121.221565c7.624348-6.789565 7.624348-17.797565 0-24.598261z" fill="#FFFFFF" /><path d="M913.964522 622.169043L777.761391 500.925217c-7.624348-6.789565-13.801739-3.962435-13.801739 6.310957v72.681739c-98.092522 0.812522-175.60487 81.196522-175.604869 180.290783 0 3.706435 0.26713 7.379478 0.500869 11.052521-0.01113 1.925565 0.222609 3.038609 0.478609 4.129392 1.491478 5.954783 6.789565 10.373565 13.156174 10.373565 4.908522 0 9.193739-2.671304 11.575652-6.622609 0.489739-1.302261 0.77913-2.57113 1.313391-3.84 19.456-46.258087 68.87513-79.315478 148.569044-79.727304v66.092522c0 10.273391 6.188522 13.100522 13.801739 6.310956l136.214261-121.221565c7.624348-6.789565 7.624348-17.797565 0-24.598261zM635.837217 784.083478c-0.356174 1.26887-0.556522 1.892174-0.946087 2.927305a22.26087 22.26087 0 0 1-1.758608 3.617391 35.773217 35.773217 0 0 1-30.642087 17.396869 35.929043 35.929043 0 0 1-34.793739-27.40313c-0.712348-2.960696-1.113043-5.453913-1.113044-8.614956a173.946435 173.946435 0 0 1-0.489739-11.798261c0-103.936 76.065391-189.328696 175.593739-201.160348v-51.812174c0-29.384348 28.827826-42.585043 50.866087-22.939826l136.214261 121.243826a38.333217 38.333217 0 0 1 0 57.844869L792.56487 784.584348c-22.060522 19.645217-50.866087 6.455652-50.866087-22.928696v-42.718609c-54.483478 5.264696-90.701913 29.072696-105.850435 65.135305z" fill="#005CB9" /></svg>