<svg class="svg-icon" style="width: 1em; height: 1em;vertical-align: middle;fill: currentColor;overflow: hidden;" viewBox="0 0 1024 1024" version="1.1" xmlns="http://www.w3.org/2000/svg"><path d="M512 912.695652c221.295304 0 400.695652-179.400348 400.695652-400.695652S733.295304 111.304348 512 111.304348 111.304348 290.704696 111.304348 512s179.400348 400.695652 400.695652 400.695652z" fill="#0B77E3" fill-opacity=".2" /><path d="M233.694609 801.391304a33.424696 33.424696 0 0 1-33.458087-33.413565l0.089043-344.998956-0.066782-33.346783A22.316522 22.316522 0 0 1 222.541913 367.304348h481.947826c6.13287 0 11.108174 4.87513 11.108174 11.163826V445.217391h100.229565a11.130435 11.130435 0 0 1 11.074783 11.052522v334.06887a11.130435 11.130435 0 0 1-11.130435 11.052521H233.683478z" fill="#40A0FF" /><path d="M233.694609 801.391304a33.424696 33.424696 0 0 1-33.458087-33.413565l0.089043-344.998956-0.066782-33.346783A22.316522 22.316522 0 0 1 222.541913 367.304348h481.947826c6.13287 0 11.108174 4.87513 11.108174 11.163826V445.217391h100.229565a11.130435 11.130435 0 0 1 11.074783 11.052522v334.06887a11.130435 11.130435 0 0 1-11.130435 11.052521H233.683478z" fill="#000000" opacity=".1" /><path d="M178.16487 396.978087a45.022609 45.022609 0 0 1 0-3.84v-3.472696C178.131478 365.04487 197.732174 345.043478 222.319304 345.043478h482.192696a33.313391 33.313391 0 0 1 33.346783 33.424696V422.956522h74.796521a33.446957 33.446957 0 0 1 33.502609 33.391304v333.913044c0 18.432-15.026087 33.391304-33.502609 33.391304H234.162087c-30.775652 0-55.986087-24.932174-55.986087-55.741217V396.978087z m22.260869 38.433391v332.499479c0 18.532174 15.270957 33.480348 33.725218 33.480347h578.515478c6.15513 0 11.241739-4.975304 11.241739-11.130434V456.347826c0-6.15513-5.042087-11.130435-11.241739-11.130435H231.357217a54.77287 54.77287 0 0 1-30.931478-9.805913z m-0.033391-40.281043c0 15.471304 15.638261 27.826087 30.964869 27.826087h484.240696v-44.521739c0-6.188522-4.964174-11.130435-11.085913-11.130435H227.773217c-15.315478 0-27.38087 12.466087-27.380869 27.826087z" fill="#005CB9" /><path d="M732.493913 178.16487a5.943652 5.943652 0 0 0-8.347826-0.445218l-332.766609 316.772174a5.921391 5.921391 0 0 0-0.144695 8.392348l150.861913 162.994087c2.259478 2.448696 6.066087 2.57113 8.336695 0.445217l338.387479-318.575304a5.921391 5.921391 0 0 0 0.144695-8.403478L732.493913 178.16487z m-111.026087-18.443131l-154.490435 232.737391L678.177391 200.982261l-56.709565-41.260522z" fill="#40A0FF" /><path d="M623.170783 163.85113L467.478261 389.565217l215.574261-188.148869z" fill="#000000" opacity=".1" /><path d="M624.406261 161.970087l-27.89287 37.554087s43.965217 22.650435 67.272348-10.273391l-39.379478-27.280696zM421.798957 455.323826l-40.114087 36.463304 37.565217 41.516522c32.790261-30.230261 2.56-77.979826 2.56-77.979826zM539.937391 656.695652l38.121739-36.296348s-41.293913-32.100174-74.095304-1.858782L539.937391 656.695652z m307.945739-278.861913l39.257044-35.094261s-36.318609-38.522435-35.951304-38.15513c-32.790261 30.241391-3.305739 73.249391-3.30574 73.249391z m-119.986087-205.189565l-38.144 36.296348s41.316174 32.100174 74.095305 1.847652l-35.951305-38.144z m-45.668173 197.865739c-22.182957-23.529739-69.030957-22.294261-93.16174 0-24.164174 22.28313-22.182957 71.379478 0 94.909217 22.182957 23.54087 63.577043 22.28313 87.741218 0 24.141913-22.294261 27.603478-71.379478 5.420522-94.909217z" fill="#FFFFFF" /><path d="M589.356522 459.475478c-22.873043-24.542609-21.23687-63.298783 3.673043-86.53913 24.887652-23.251478 63.599304-22.182957 86.461218 2.359652 22.861913 24.56487 21.214609 63.298783-3.673044 86.550261-24.898783 23.240348-63.610435 22.182957-86.472348-2.370783z m106.429217-99.350261c-31.309913-33.602783-84.123826-35.049739-117.949217-3.472695-33.836522 31.554783-36.073739 84.390957-4.752696 117.993739 31.309913 33.613913 84.123826 35.06087 117.949217 3.494956 33.836522-31.577043 36.073739-84.402087 4.752696-118.016z m-4.752696-177.719652l-43.174956-30.085565a32.333913 32.333913 0 0 0-45.033739 7.991652L391.457391 459.475478l-14.413913 13.078261a30.942609 30.942609 0 0 0-1.480348 43.575652l142.502957 153.043479a30.831304 30.831304 0 0 0 43.52 1.536L886.650435 362.852174a30.942609 30.942609 0 0 0 1.502608-43.575652L750.781217 169.271652a30.809043 30.809043 0 0 0-43.52-1.558261l-16.228174 14.692174z m6.233044 25.355131l27.013565-25.355131a5.943652 5.943652 0 0 1 8.314435 0.333913l24.475826 25.878261c-16.506435 15.09287-43.53113 16.773565-59.803826-0.857043zM847.515826 370.532174c-14.514087-15.872-18.966261-45.022609 3.873391-60.493913l23.707826 25.722435a6.010435 6.010435 0 0 1-0.256 8.325565l-27.325217 26.445913zM544.589913 652.477217a5.965913 5.965913 0 0 1-8.314435-0.322782l-22.594782-24.275478c16.473043-15.304348 41.238261-14.592 56.097391 1.068521l-25.188174 23.529739zM421.10887 465.519304c16.539826 16.317217 15.582609 45.545739-3.083131 59.136l-24.264348-25.544347a5.988174 5.988174 0 0 1 0.267131-8.314435l27.080348-25.266087z m261.498434-244.624695c19.055304 24.464696 64.089043 24.987826 88.32 3.450434l66.048 70.466783c-26.713043 28.672-24.887652 63.688348-3.572869 88.776348L586.24 614.489043c-21.481739-22.093913-55.952696-27.291826-87.362783-2.56l-68.173913-73.093565c25.689043-20.702609 29.94087-61.640348 5.910261-87.696695l245.993739-230.244174z m-90.490434-5.821218c16.506435 11.152696 39.94713 15.471304 57.433043 8.937739L469.281391 388.541217 592.13913 215.073391z m27.725913-41.293913a7.468522 7.468522 0 0 1 10.351304-1.869913l30.853565 21.125565c-13.401043 16.695652-43.152696 13.623652-58.212174 3.717566l17.007305-22.973218z" fill="#005CB9" /><path d="M823.652174 578.782609h70.054956c6.13287 0 11.108174 5.042087 11.108174 11.097043v66.849391c0 6.121739-4.975304 11.097043-11.108174 11.097044H823.652174v122.37913c0 6.177391-5.008696 11.186087-11.085913 11.186087h-579.005218a33.346783 33.346783 0 0 1-33.28-33.413565V422.956522l136.904348 11.27513H823.652174V578.782609z" fill="#A6D2FF" /><path d="M845.913043 556.521739h44.52174c18.42087 0 33.513739 15.014957 33.513739 33.357913v66.849391C923.948522 675.138783 908.744348 690.086957 890.434783 690.086957h-111.193044a33.502609 33.502609 0 0 1-33.469217-33.357914v-66.849391c0-18.409739 15.159652-33.357913 33.469217-33.357913H823.652174v-100.196174A11.052522 11.052522 0 0 0 812.521739 445.217391H222.920348a44.443826 44.443826 0 0 1-44.443826-44.521739l22.260869 0.089044A22.149565 22.149565 0 0 0 222.920348 422.956522H812.521739c18.509913 0 33.391304 14.914783 33.391304 33.369043V556.521739z m-77.879652 33.357913v66.849391c0 6.054957 5.097739 11.097043 11.208348 11.097044H890.434783c6.010435 0 11.25287-4.964174 11.252869-11.097044v-66.849391c0-6.054957-5.13113-11.097043-11.252869-11.097043h-111.193044c-6.010435 0-11.208348 4.964174-11.208348 11.097043z" fill="#005CB9" /><path d="M834.782609 623.304348m-22.26087 0a22.26087 22.26087 0 1 0 44.521739 0 22.26087 22.26087 0 1 0-44.521739 0Z" fill="#005CB9" /><path d="M756.869565 773.565217c0-3.072 2.393043-5.565217 5.453913-5.565217h33.613913a5.565217 5.565217 0 0 1 5.453913 5.565217c0 3.072-2.393043 5.565217-5.453913 5.565218h-33.613913a5.565217 5.565217 0 0 1-5.453913-5.565218z m-89.043478 0c0-3.072 2.393043-5.565217 5.453913-5.565217h33.613913a5.565217 5.565217 0 0 1 5.453913 5.565217c0 3.072-2.393043 5.565217-5.453913 5.565218h-33.613913a5.565217 5.565217 0 0 1-5.453913-5.565218z m-89.043478 0c0-3.072 2.393043-5.565217 5.453913-5.565217h33.613913a5.565217 5.565217 0 0 1 5.453913 5.565217c0 3.072-2.393043 5.565217-5.453913 5.565218h-33.613913a5.565217 5.565217 0 0 1-5.453913-5.565218z m-89.043479 0c0-3.072 2.393043-5.565217 5.453913-5.565217h33.613914a5.565217 5.565217 0 0 1 5.453913 5.565217c0 3.072-2.393043 5.565217-5.453913 5.565218h-33.613914a5.565217 5.565217 0 0 1-5.453913-5.565218z m-89.043478 0c0-3.072 2.393043-5.565217 5.453913-5.565217h33.613913a5.565217 5.565217 0 0 1 5.453913 5.565217c0 3.072-2.393043 5.565217-5.453913 5.565218h-33.613913a5.565217 5.565217 0 0 1-5.453913-5.565218z m-89.043478 0c0-3.072 2.393043-5.565217 5.453913-5.565217h33.613913a5.565217 5.565217 0 0 1 5.453913 5.565217c0 3.072-2.393043 5.565217-5.453913 5.565218h-33.613913a5.565217 5.565217 0 0 1-5.453913-5.565218z m-88.709565-6.767304a5.476174 5.476174 0 0 1 6.344348-4.530087l33.090782 5.832348a5.565217 5.565217 0 0 1 4.418783 6.433391 5.476174 5.476174 0 0 1-6.344348 4.530087l-33.090783-5.832348a5.565217 5.565217 0 0 1-4.418782-6.433391zM756.869565 473.043478c0-3.072 2.393043-5.565217 5.453913-5.565217h33.613913a5.565217 5.565217 0 0 1 5.453913 5.565217c0 3.072-2.393043 5.565217-5.453913 5.565218h-33.613913a5.565217 5.565217 0 0 1-5.453913-5.565218z m-89.043478 0c0-3.072 2.393043-5.565217 5.453913-5.565217h33.613913a5.565217 5.565217 0 0 1 5.453913 5.565217c0 3.072-2.393043 5.565217-5.453913 5.565218h-33.613913a5.565217 5.565217 0 0 1-5.453913-5.565218z m-89.043478 0c0-3.072 2.393043-5.565217 5.453913-5.565217h33.613913a5.565217 5.565217 0 0 1 5.453913 5.565217c0 3.072-2.393043 5.565217-5.453913 5.565218h-33.613913a5.565217 5.565217 0 0 1-5.453913-5.565218z m-89.043479 0c0-3.072 2.393043-5.565217 5.453913-5.565217h33.613914a5.565217 5.565217 0 0 1 5.453913 5.565217c0 3.072-2.393043 5.565217-5.453913 5.565218h-33.613914a5.565217 5.565217 0 0 1-5.453913-5.565218z m-89.043478 0c0-3.072 2.393043-5.565217 5.453913-5.565217h33.613913a5.565217 5.565217 0 0 1 5.453913 5.565217c0 3.072-2.393043 5.565217-5.453913 5.565218h-33.613913a5.565217 5.565217 0 0 1-5.453913-5.565218z m-89.043478 0c0-3.072 2.393043-5.565217 5.453913-5.565217h33.613913a5.565217 5.565217 0 0 1 5.453913 5.565217c0 3.072-2.393043 5.565217-5.453913 5.565218h-33.613913a5.565217 5.565217 0 0 1-5.453913-5.565218z m-88.709565-6.767304a5.476174 5.476174 0 0 1 6.344348-4.530087l33.090782 5.832348a5.565217 5.565217 0 0 1 4.418783 6.433391 5.476174 5.476174 0 0 1-6.344348 4.530087l-33.090783-5.832348a5.565217 5.565217 0 0 1-4.418782-6.433391zM311.652174 384c0-3.072 2.393043-5.565217 5.453913-5.565217h33.613913a5.565217 5.565217 0 0 1 5.453913 5.565217c0 3.072-2.393043 5.565217-5.453913 5.565217h-33.613913a5.565217 5.565217 0 0 1-5.453913-5.565217z m-88.709565 7.090087a5.476174 5.476174 0 0 1 4.418782-6.433391l33.090783-5.832348a5.565217 5.565217 0 0 1 6.344348 4.530087 5.476174 5.476174 0 0 1-4.418783 6.433391l-33.090782 5.832348a5.565217 5.565217 0 0 1-6.344348-4.530087z" fill="#0B77E3" /></svg>