<svg class="svg-icon" style="width: 1em; height: 1em;vertical-align: middle;fill: currentColor;overflow: hidden;" viewBox="0 0 1024 1024" version="1.1" xmlns="http://www.w3.org/2000/svg"><path d="M512 912.695652c221.295304 0 400.695652-179.400348 400.695652-400.695652S733.295304 111.304348 512 111.304348 111.304348 290.704696 111.304348 512s179.400348 400.695652 400.695652 400.695652z" fill="#0B77E3" fill-opacity=".2" /><path d="M178.086957 166.956522a33.391304 33.391304 0 0 1 33.346782-33.391305h601.132522A33.346783 33.346783 0 0 1 845.913043 166.956522v723.478261a33.391304 33.391304 0 0 1-33.346782 33.391304H211.433739A33.346783 33.346783 0 0 1 178.086957 890.434783V166.956522z" fill="#005CB9" /><path d="M200.347826 166.956522a11.130435 11.130435 0 0 1 11.085913-11.130435h601.132522c6.121739 0 11.085913 4.964174 11.085913 11.130435v723.478261a11.130435 11.130435 0 0 1-11.085913 11.130434H211.433739A11.085913 11.085913 0 0 1 200.347826 890.434783V166.956522z m33.391304 55.652174v623.304347a22.26087 22.26087 0 0 0 22.26087 22.26087h500.825043A33.458087 33.458087 0 0 0 790.26087 834.771478V222.608696a33.380174 33.380174 0 0 0-33.435827-33.391305H267.174957A33.458087 33.458087 0 0 0 233.73913 222.619826z" fill="#40A0FF" /><path d="M256 222.619826c0-6.15513 5.064348-11.141565 11.174957-11.141565h489.650086A11.119304 11.119304 0 0 1 768 222.619826V834.782609c0 6.15513-5.064348 11.141565-11.174957 11.141565H256v-623.304348z" fill="#FFFFFF" /><path d="M456.347826 311.641043a11.130435 11.130435 0 0 1 11.074783-11.119304h189.328695c6.121739 0 11.074783 4.930783 11.074783 11.119304v11.152696a11.130435 11.130435 0 0 1-11.074783 11.119304h-189.328695a11.063652 11.063652 0 0 1-11.074783-11.119304v-11.152696z m0 55.652174A11.130435 11.130435 0 0 1 467.478261 356.173913h244.869565c6.144 0 11.130435 4.930783 11.130435 11.119304v11.152696A11.130435 11.130435 0 0 1 712.347826 389.565217H467.478261c-6.144 0-11.130435-4.930783-11.130435-11.119304v-11.152696z m0 122.434783a11.130435 11.130435 0 0 1 11.074783-11.119304h189.328695c6.121739 0 11.074783 4.930783 11.074783 11.119304v11.152696a11.130435 11.130435 0 0 1-11.074783 11.119304h-189.328695a11.063652 11.063652 0 0 1-11.074783-11.119304v-11.152696z m0 55.652174A11.130435 11.130435 0 0 1 467.478261 534.26087h244.869565c6.144 0 11.130435 4.930783 11.130435 11.119304v11.152696A11.130435 11.130435 0 0 1 712.347826 567.652174H467.478261c-6.144 0-11.130435-4.930783-11.130435-11.119304v-11.152696z m0 122.434783a11.130435 11.130435 0 0 1 11.074783-11.119305h189.328695c6.121739 0 11.074783 4.930783 11.074783 11.119305v11.152695a11.130435 11.130435 0 0 1-11.074783 11.119305h-189.328695a11.063652 11.063652 0 0 1-11.074783-11.119305v-11.152695z m0 55.652173A11.130435 11.130435 0 0 1 467.478261 712.347826h244.869565c6.144 0 11.130435 4.930783 11.130435 11.119304v11.152696A11.130435 11.130435 0 0 1 712.347826 745.73913H467.478261c-6.144 0-11.130435-4.930783-11.130435-11.119304v-11.152696z" fill="#40A0FF" /><path d="M356.173913 556.521739a33.391304 33.391304 0 1 1 0-66.782609 33.391304 33.391304 0 0 1 0 66.782609z m0 178.086957a33.391304 33.391304 0 1 1 0-66.782609 33.391304 33.391304 0 0 1 0 66.782609z" fill="#A6D2FF" /><path d="M356.173913 578.782609a55.652174 55.652174 0 1 1 0-111.304348 55.652174 55.652174 0 0 1 0 111.304348z m0 178.086956a55.652174 55.652174 0 1 1 0-111.304348 55.652174 55.652174 0 0 1 0 111.304348z m-5.498435-372.502261a11.241739 11.241739 0 0 1-2.56-1.335652l-27.347478-19.144348a11.097043 11.097043 0 0 1-2.726957-15.504695 11.097043 11.097043 0 0 1 15.493566-2.738087l18.565565 13.000348 38.377739-54.806261a11.085913 11.085913 0 0 1 15.482435-2.715826c5.030957 3.528348 6.266435 10.462609 2.749217 15.471304l-44.722087 63.877565a11.085913 11.085913 0 0 1-13.312 3.895652zM356.173913 556.521739a33.391304 33.391304 0 1 0 0-66.782609 33.391304 33.391304 0 0 0 0 66.782609z m0 178.086957a33.391304 33.391304 0 1 0 0-66.782609 33.391304 33.391304 0 0 0 0 66.782609z m89.043478-623.304348h-72.347826a61.206261 61.206261 0 0 0-61.217391 61.217391V211.478261a22.26087 22.26087 0 0 0 22.260869 22.260869h356.173914a22.26087 22.26087 0 0 0 22.260869-22.260869v-38.956522c0-33.78087-27.425391-61.217391-61.217391-61.217391H578.782609v-0.044522a66.782609 66.782609 0 0 0-133.565218 0V111.304348z" fill="#005CB9" /><path d="M467.478261 133.565217V111.259826a44.521739 44.521739 0 0 1 89.043478 0V133.565217h94.608696c21.51513 0 38.956522 17.474783 38.956522 38.956522V211.478261H333.913043v-38.956522c0-21.51513 17.41913-38.956522 38.956522-38.956522H467.478261z m44.521739 0a22.26087 22.26087 0 1 0 0-44.521739 22.26087 22.26087 0 0 0 0 44.521739z" fill="#A6D2FF" /><path d="M712.347826 582.322087C712.347826 555.776 732.271304 534.26087 756.869565 534.26087s44.521739 21.504 44.521739 48.061217v15.181913C801.391304 624.050087 781.467826 645.565217 756.869565 645.565217s-44.521739-21.504-44.521739-48.061217v-15.181913z m-22.260869 0.289391v14.603131C690.086957 636.237913 719.983304 667.826087 756.869565 667.826087s66.782609-31.610435 66.782609-70.611478v-14.603131C823.652174 543.588174 793.755826 512 756.869565 512s-66.782609 31.610435-66.782608 70.611478z" fill="#A6D2FF" /><path d="M645.565217 612.173913m11.130435 0l200.347826 0q11.130435 0 11.130435 11.130435l0 166.956522q0 11.130435-11.130435 11.130434l-200.347826 0q-11.130435 0-11.130435-11.130434l0-166.956522q0-11.130435 11.130435-11.130435Z" fill="#40A0FF" /><path d="M753.16313 716.488348C742.355478 713.049043 734.608696 703.777391 734.608696 692.869565c0-13.83513 12.466087-25.043478 27.826087-25.043478s27.826087 11.208348 27.826087 25.043478c0 10.907826-7.746783 20.179478-18.554435 23.618783v20.034782c0 5.086609-4.118261 9.216-9.271652 9.216a9.238261 9.238261 0 0 1-9.271653-9.22713v-20.023652z" fill="#FFFFFF" /><path d="M645.565217 623.304348v166.956522a11.130435 11.130435 0 0 0 11.041392 11.130434h200.525913c5.977043 0 11.041391-4.986435 11.041391-11.130434V623.304348a11.130435 11.130435 0 0 0-11.041391-11.130435H656.606609c-5.977043 0-11.041391 4.986435-11.041392 11.130435z m-22.260869 0c0-18.398609 14.992696-33.391304 33.302261-33.391305h200.525913A33.391304 33.391304 0 0 1 890.434783 623.304348v166.956522c0 18.398609-14.992696 33.391304-33.302261 33.391304H656.606609A33.391304 33.391304 0 0 1 623.304348 790.26087V623.304348z m44.521739-40.69287C667.826087 531.578435 707.405913 489.73913 756.869565 489.73913c49.474783 0 89.043478 41.828174 89.043478 92.872348v19.533913H667.826087v-19.533913z m22.26087-0.289391v15.181913h133.565217v-15.181913C823.652174 543.833043 794.156522 512 756.869565 512s-66.782609 31.844174-66.782608 70.322087z m22.260869-3.205565c0-24.776348 19.923478-44.855652 44.521739-44.855652s44.521739 20.068174 44.521739 44.855652V612.173913h-89.043478v-33.057391z m22.26087-3.372522V589.913043h44.521739v-14.169043c0-10.618435-9.961739-19.222261-22.26087-19.222261s-22.26087 8.603826-22.260869 19.222261z m37.097739 140.744348C782.514087 713.049043 790.26087 703.777391 790.26087 692.869565c0-13.83513-12.466087-25.043478-27.826087-25.043478S734.608696 679.034435 734.608696 692.869565c0 10.907826 7.746783 20.179478 18.554434 23.618783v20.034782A9.238261 9.238261 0 0 0 762.434783 745.73913a9.22713 9.22713 0 0 0 9.271652-9.22713v-20.023652z m22.260869 20.034782A31.488 31.488 0 0 1 762.434783 768a31.49913 31.49913 0 0 1-31.532522-31.488v-6.867478c-11.353043-8.681739-18.554435-21.926957-18.554435-36.774957 0-26.679652 22.917565-47.304348 50.086957-47.304348s50.086957 20.624696 50.086956 47.304348c0 14.83687-7.190261 28.093217-18.554435 36.774957v6.867478z" fill="#005CB9" /></svg>