<svg class="svg-icon" style="width: 1em; height: 1em;vertical-align: middle;fill: currentColor;overflow: hidden;" viewBox="0 0 1024 1024" version="1.1" xmlns="http://www.w3.org/2000/svg"><path d="M512 912.695652c221.295304 0 400.695652-179.400348 400.695652-400.695652S733.295304 111.304348 512 111.304348 111.304348 290.704696 111.304348 512s179.400348 400.695652 400.695652 400.695652z" fill="#0B77E3" fill-opacity=".2" /><path d="M517.709913 357.36487a75.01913 75.01913 0 0 1-5.531826 0.089043c-2.882783 0-5.821217-0.044522-5.87687-0.089043C479.777391 310.249739 415.042783 278.26087 356.196174 278.26087 270.09113 278.26087 200.347826 346.624 200.347826 430.948174 200.347826 641.691826 435.95687 738.048 511.98887 812.521739 588.009739 738.05913 823.652174 641.691826 823.652174 430.948174 823.663304 346.624 753.897739 278.26087 667.848348 278.26087c-58.88 0-123.614609 31.98887-150.138435 79.104z" fill="#40A0FF" /><path d="M625.196522 545.391304a33.402435 33.402435 0 1 1 0 22.26087h-42.440348l-12.933565-28.371478-49.485913 165.64313-32.478609-184.041739-28.004174 112.050087L427.208348 567.652174H222.608696v-22.26087h218.356869l11.876174 23.763479 38.778435-155.080348 34.304 194.393043 39.557565-132.396521L597.069913 545.391304h28.137739z" fill="#FFFFFF" /><path d="M517.709913 357.36487C516.006957 360.392348 512 367.304348 512 367.304348s-3.784348-6.64487-5.698783-9.939478C479.777391 310.249739 415.042783 278.26087 356.196174 278.26087 270.09113 278.26087 200.347826 346.624 200.347826 430.948174 200.347826 641.691826 435.95687 738.048 511.98887 812.521739 588.009739 738.05913 823.652174 641.691826 823.652174 430.948174 823.663304 346.624 753.897739 278.26087 667.848348 278.26087c-58.88 0-123.614609 31.98887-150.138435 79.104zM667.848348 256c98.237217 0 178.086957 78.235826 178.064695 174.948174 0 116.691478-61.44 204.599652-176.261565 292.251826-9.97287 7.613217-123.803826 87.318261-142.09113 105.22713l-15.582609 15.248696-15.571478-15.248696c-18.276174-17.90887-132.096-97.613913-142.06887-105.22713C239.515826 635.558957 178.086957 547.639652 178.086957 430.948174 178.086957 334.224696 257.914435 256 356.196174 256c59.180522 0 121.043478 28.048696 155.826087 70.500174 34.893913-42.518261 96.690087-70.500174 155.826087-70.500174z" fill="#005CB9" /></svg>